<?xml version="1.0" encoding="UTF-8"?>
<svg xmlns="http://www.w3.org/2000/svg" xmlns:xlink="http://www.w3.org/1999/xlink" width="157px" height="30px" viewBox="0 0 156 30" version="1.1">
<g id="surface1">
<path style=" stroke:none;fill-rule:nonzero;fill:rgb(100%,81.568627%,23.921569%);fill-opacity:1;" d="M 31.066406 15.070312 C 31.066406 21.414062 25.953125 26.554688 19.648438 26.554688 C 13.339844 26.554688 8.226562 21.414062 8.226562 15.070312 C 8.226562 8.730469 13.339844 3.589844 19.648438 3.589844 C 25.953125 3.589844 31.066406 8.730469 31.066406 15.070312 Z M 31.066406 15.070312 "/>
<path style=" stroke:none;fill-rule:nonzero;fill:rgb(100%,59.607843%,12.156863%);fill-opacity:1;" d="M 28.210938 15.070312 C 28.210938 10.316406 24.378906 6.457031 19.648438 6.457031 C 14.917969 6.457031 11.082031 10.316406 11.082031 15.070312 C 11.082031 19.828125 14.917969 23.683594 19.648438 23.683594 C 24.378906 23.683594 28.210938 19.828125 28.210938 15.070312 Z M 28.210938 15.070312 "/>
<path style=" stroke:none;fill-rule:nonzero;fill:rgb(0%,17.647059%,80.392157%);fill-opacity:1;" d="M 25.359375 15.070312 C 25.359375 11.898438 22.800781 9.328125 19.648438 9.328125 C 16.496094 9.328125 13.9375 11.898438 13.9375 15.070312 C 13.9375 18.242188 16.496094 20.8125 19.648438 20.8125 C 22.800781 20.8125 25.359375 18.242188 25.359375 15.070312 Z M 25.359375 15.070312 "/>
<path style=" stroke:none;fill-rule:nonzero;fill:rgb(100%,100%,100%);fill-opacity:1;" d="M 17.507812 11.484375 C 17.507812 10.691406 16.867188 10.046875 16.078125 10.046875 C 15.289062 10.046875 14.652344 10.691406 14.652344 11.484375 C 14.652344 12.273438 15.289062 12.917969 16.078125 12.917969 C 16.867188 12.917969 17.507812 12.273438 17.507812 11.484375 Z M 17.507812 11.484375 "/>
<path style=" stroke:none;fill-rule:evenodd;fill:rgb(0%,17.647059%,80.392157%);fill-opacity:1;" d="M 9.050781 25.726562 C 14.902344 31.613281 24.394531 31.613281 30.246094 25.726562 C 36.101562 19.84375 36.101562 10.300781 30.246094 4.414062 C 24.394531 -1.472656 14.902344 -1.472656 9.050781 4.414062 C 5.816406 7.667969 4.367188 12.035156 4.707031 16.289062 L 3.5 15.070312 C 2.800781 14.371094 1.671875 14.371094 0.976562 15.070312 C 0.277344 15.769531 0.277344 16.90625 0.976562 17.609375 Z M 11.574219 23.191406 C 7.113281 18.707031 7.113281 11.4375 11.574219 6.953125 C 16.03125 2.46875 23.261719 2.46875 27.722656 6.953125 C 32.183594 11.4375 32.183594 18.707031 27.722656 23.191406 C 23.261719 27.675781 16.03125 27.675781 11.574219 23.191406 Z M 11.574219 23.191406 "/>
<path style=" stroke:none;fill-rule:evenodd;fill:rgb(0%,17.647059%,80.392157%);fill-opacity:1;" d="M 41.695312 21.015625 C 42.769531 21.601562 43.996094 21.894531 45.375 21.894531 C 46.449219 21.894531 47.441406 21.703125 48.347656 21.320312 C 49.277344 20.933594 50.058594 20.367188 50.695312 19.617188 L 48.59375 17.507812 C 48.195312 17.964844 47.722656 18.3125 47.175781 18.550781 C 46.632812 18.769531 46.023438 18.878906 45.351562 18.878906 C 44.605469 18.878906 43.949219 18.722656 43.386719 18.414062 C 42.824219 18.082031 42.386719 17.625 42.078125 17.042969 C 41.960938 16.800781 41.867188 16.542969 41.796875 16.269531 L 51.429688 16.246094 C 51.503906 15.933594 51.550781 15.660156 51.566406 15.421875 C 51.605469 15.167969 51.621094 14.921875 51.621094 14.683594 C 51.621094 13.421875 51.339844 12.296875 50.777344 11.3125 C 50.230469 10.304688 49.46875 9.519531 48.484375 8.953125 C 47.523438 8.367188 46.402344 8.074219 45.132812 8.074219 C 43.839844 8.074219 42.667969 8.386719 41.613281 9.007812 C 40.558594 9.609375 39.722656 10.433594 39.105469 11.476562 C 38.503906 12.5 38.203125 13.667969 38.203125 14.984375 C 38.203125 16.320312 38.515625 17.507812 39.132812 18.550781 C 39.769531 19.589844 40.621094 20.414062 41.695312 21.015625 Z M 41.800781 13.582031 L 48.175781 13.5625 C 48.105469 13.25 48.007812 12.964844 47.886719 12.707031 C 47.648438 12.179688 47.296875 11.777344 46.820312 11.503906 C 46.367188 11.210938 45.804688 11.0625 45.132812 11.0625 C 44.421875 11.0625 43.804688 11.226562 43.277344 11.558594 C 42.75 11.867188 42.339844 12.316406 42.050781 12.902344 C 41.949219 13.113281 41.863281 13.339844 41.800781 13.582031 Z M 41.800781 13.582031 "/>
<path style=" stroke:none;fill-rule:nonzero;fill:rgb(0%,17.647059%,80.392157%);fill-opacity:1;" d="M 60.902344 12.023438 C 61.394531 12.445312 61.640625 13.039062 61.640625 13.804688 L 61.640625 21.878906 L 65.210938 21.878906 L 65.210938 13.804688 C 65.210938 13.292969 65.320312 12.855469 65.539062 12.488281 C 65.757812 12.125 66.054688 11.851562 66.4375 11.667969 C 66.839844 11.464844 67.265625 11.367188 67.71875 11.367188 C 68.429688 11.367188 69.019531 11.585938 69.492188 12.023438 C 69.984375 12.445312 70.230469 13.039062 70.230469 13.804688 L 70.230469 21.878906 L 73.800781 21.878906 L 73.800781 13.230469 C 73.800781 12.167969 73.574219 11.253906 73.121094 10.488281 C 72.664062 9.71875 72.046875 9.136719 71.265625 8.734375 C 70.484375 8.3125 69.601562 8.101562 68.621094 8.101562 C 67.636719 8.101562 66.746094 8.320312 65.949219 8.761719 C 65.3125 9.09375 64.773438 9.542969 64.332031 10.109375 C 63.925781 9.527344 63.410156 9.070312 62.785156 8.734375 C 62.039062 8.3125 61.210938 8.101562 60.300781 8.101562 C 59.339844 8.101562 58.476562 8.3125 57.710938 8.734375 C 57.304688 8.949219 56.941406 9.210938 56.621094 9.527344 L 56.621094 8.375 L 53.050781 8.375 L 53.050781 21.878906 L 56.621094 21.878906 L 56.621094 13.804688 C 56.621094 13.292969 56.730469 12.855469 56.949219 12.488281 C 57.167969 12.125 57.464844 11.851562 57.847656 11.667969 C 58.230469 11.464844 58.65625 11.367188 59.128906 11.367188 C 59.839844 11.367188 60.429688 11.585938 60.902344 12.023438 Z M 60.902344 12.023438 "/>
<path style=" stroke:none;fill-rule:evenodd;fill:rgb(0%,17.647059%,80.392157%);fill-opacity:1;" d="M 79.972656 21.320312 C 80.738281 21.703125 81.589844 21.894531 82.535156 21.894531 C 83.753906 21.894531 84.847656 21.59375 85.808594 20.988281 C 86.773438 20.386719 87.527344 19.5625 88.074219 18.523438 C 88.636719 17.480469 88.917969 16.308594 88.917969 15.011719 C 88.917969 13.695312 88.636719 12.515625 88.074219 11.476562 C 87.527344 10.433594 86.773438 9.609375 85.808594 9.007812 C 84.847656 8.402344 83.753906 8.101562 82.535156 8.101562 C 81.589844 8.101562 80.738281 8.304688 79.972656 8.707031 C 79.535156 8.941406 79.144531 9.230469 78.800781 9.566406 L 78.800781 8.375 L 75.230469 8.375 L 75.230469 27.160156 L 78.773438 27.160156 L 78.773438 20.453125 C 79.117188 20.792969 79.519531 21.078125 79.972656 21.320312 Z M 83.65625 18.136719 C 83.144531 18.429688 82.5625 18.578125 81.910156 18.578125 C 81.253906 18.578125 80.671875 18.429688 80.164062 18.136719 C 79.671875 17.828125 79.28125 17.40625 78.992188 16.875 C 78.71875 16.328125 78.582031 15.699219 78.582031 14.984375 C 78.582031 14.289062 78.71875 13.679688 78.992188 13.148438 C 79.28125 12.597656 79.683594 12.179688 80.191406 11.886719 C 80.699219 11.574219 81.273438 11.421875 81.910156 11.421875 C 82.5625 11.421875 83.144531 11.574219 83.65625 11.886719 C 84.164062 12.179688 84.554688 12.597656 84.828125 13.148438 C 85.117188 13.679688 85.265625 14.289062 85.265625 14.984375 C 85.265625 15.699219 85.117188 16.328125 84.828125 16.875 C 84.554688 17.40625 84.164062 17.828125 83.65625 18.136719 Z M 83.65625 18.136719 "/>
<path style=" stroke:none;fill-rule:nonzero;fill:rgb(0%,17.647059%,80.392157%);fill-opacity:1;" d="M 93.917969 14.300781 L 93.917969 21.839844 L 90.34375 21.839844 L 90.34375 8.375 L 93.917969 8.375 L 93.917969 9.5625 C 93.925781 9.550781 93.9375 9.539062 93.945312 9.527344 C 94.726562 8.578125 95.855469 8.101562 97.328125 8.101562 C 97.960938 8.101562 98.535156 8.210938 99.042969 8.429688 C 99.554688 8.632812 100.015625 8.972656 100.4375 9.445312 L 98.199219 12.023438 C 98 11.804688 97.753906 11.640625 97.464844 11.53125 C 97.191406 11.421875 96.871094 11.367188 96.507812 11.367188 C 95.746094 11.367188 95.117188 11.613281 94.628906 12.105469 C 94.152344 12.582031 93.917969 13.3125 93.917969 14.300781 Z M 93.917969 14.300781 "/>
<path style=" stroke:none;fill-rule:evenodd;fill:rgb(0%,17.647059%,80.392157%);fill-opacity:1;" d="M 103.296875 21.015625 C 104.367188 21.601562 105.59375 21.894531 106.976562 21.894531 C 108.050781 21.894531 109.039062 21.703125 109.949219 21.320312 C 110.875 20.933594 111.65625 20.367188 112.292969 19.617188 L 110.195312 17.507812 C 109.792969 17.964844 109.320312 18.3125 108.777344 18.550781 C 108.230469 18.769531 107.621094 18.878906 106.949219 18.878906 C 106.203125 18.878906 105.550781 18.722656 104.984375 18.414062 C 104.421875 18.082031 103.984375 17.625 103.675781 17.042969 C 103.558594 16.800781 103.46875 16.542969 103.398438 16.269531 L 113.03125 16.246094 C 113.101562 15.933594 113.148438 15.660156 113.167969 15.421875 C 113.203125 15.167969 113.222656 14.921875 113.222656 14.683594 C 113.222656 13.421875 112.9375 12.296875 112.375 11.3125 C 111.832031 10.304688 111.066406 9.519531 110.085938 8.953125 C 109.121094 8.367188 108.003906 8.074219 106.730469 8.074219 C 105.441406 8.074219 104.269531 8.386719 103.214844 9.007812 C 102.160156 9.609375 101.324219 10.433594 100.703125 11.476562 C 100.105469 12.5 99.804688 13.667969 99.804688 14.984375 C 99.804688 16.320312 100.113281 17.507812 100.730469 18.550781 C 101.367188 19.589844 102.222656 20.414062 103.296875 21.015625 Z M 103.402344 13.582031 L 109.777344 13.5625 C 109.703125 13.25 109.609375 12.964844 109.484375 12.707031 C 109.25 12.179688 108.894531 11.777344 108.421875 11.503906 C 107.96875 11.210938 107.402344 11.0625 106.730469 11.0625 C 106.023438 11.0625 105.402344 11.226562 104.875 11.558594 C 104.347656 11.867188 103.941406 12.316406 103.648438 12.902344 C 103.546875 13.113281 103.464844 13.339844 103.402344 13.582031 Z M 103.402344 13.582031 "/>
<path style=" stroke:none;fill-rule:evenodd;fill:rgb(0%,17.647059%,80.392157%);fill-opacity:1;" d="M 117.476562 27.777344 C 118.609375 28.316406 119.917969 28.589844 121.398438 28.589844 C 122.878906 28.589844 124.1875 28.296875 125.320312 27.71875 C 126.457031 27.136719 127.339844 26.324219 127.976562 25.28125 C 128.628906 24.253906 128.957031 23.046875 128.957031 21.652344 L 128.957031 8.363281 L 125.207031 8.363281 L 125.207031 9.554688 C 124.851562 9.210938 124.4375 8.921875 123.964844 8.683594 C 123.179688 8.277344 122.265625 8.074219 121.226562 8.074219 C 119.976562 8.074219 118.851562 8.382812 117.851562 9 C 116.851562 9.601562 116.0625 10.421875 115.484375 11.46875 C 114.925781 12.511719 114.648438 13.691406 114.648438 15.007812 C 114.648438 16.324219 114.925781 17.511719 115.484375 18.578125 C 116.0625 19.640625 116.851562 20.484375 117.851562 21.101562 C 118.851562 21.703125 119.976562 22 121.226562 22 C 122.246094 22 123.148438 21.808594 123.9375 21.421875 C 124.410156 21.183594 124.824219 20.894531 125.175781 20.546875 L 125.175781 21.710938 C 125.175781 22.777344 124.832031 23.605469 124.136719 24.207031 C 123.464844 24.808594 122.542969 25.105469 121.371094 25.105469 C 120.425781 25.105469 119.621094 24.933594 118.945312 24.585938 C 118.292969 24.253906 117.695312 23.773438 117.15625 23.132812 L 114.765625 25.542969 C 115.4375 26.507812 116.339844 27.253906 117.476562 27.777344 Z M 123.765625 18.113281 C 123.265625 18.402344 122.667969 18.546875 121.976562 18.546875 C 121.28125 18.546875 120.675781 18.394531 120.160156 18.085938 C 119.636719 17.773438 119.234375 17.359375 118.945312 16.835938 C 118.65625 16.292969 118.515625 15.695312 118.515625 15.039062 C 118.515625 14.359375 118.65625 13.761719 118.945312 13.238281 C 119.234375 12.695312 119.636719 12.28125 120.160156 11.988281 C 120.675781 11.679688 121.28125 11.527344 121.976562 11.527344 C 122.667969 11.527344 123.265625 11.679688 123.765625 11.988281 C 124.285156 12.28125 124.6875 12.6875 124.976562 13.210938 C 125.265625 13.730469 125.40625 14.339844 125.40625 15.039062 C 125.40625 15.714844 125.265625 16.324219 124.976562 16.867188 C 124.6875 17.386719 124.285156 17.804688 123.765625 18.113281 Z M 123.765625 18.113281 "/>
<path style=" stroke:none;fill-rule:nonzero;fill:rgb(0%,17.647059%,80.392157%);fill-opacity:1;" d="M 137.445312 21.894531 C 136.121094 21.894531 134.917969 21.59375 133.847656 20.988281 C 132.792969 20.367188 131.945312 19.535156 131.3125 18.496094 C 130.691406 17.433594 130.382812 16.253906 130.382812 14.957031 C 130.382812 13.660156 130.691406 12.5 131.3125 11.476562 C 131.929688 10.433594 132.773438 9.609375 133.847656 9.007812 C 134.917969 8.386719 136.109375 8.074219 137.417969 8.074219 C 138.765625 8.074219 139.964844 8.386719 141.019531 9.007812 C 142.089844 9.609375 142.9375 10.433594 143.554688 11.476562 C 144.171875 12.5 144.484375 13.660156 144.484375 14.957031 C 144.484375 16.253906 144.171875 17.433594 143.554688 18.496094 C 142.9375 19.535156 142.089844 20.367188 141.019531 20.988281 C 139.964844 21.59375 138.773438 21.894531 137.445312 21.894531 Z M 137.417969 18.550781 C 138.09375 18.550781 138.683594 18.402344 139.191406 18.109375 C 139.71875 17.800781 140.117188 17.378906 140.390625 16.847656 C 140.683594 16.300781 140.828125 15.679688 140.828125 14.984375 C 140.828125 14.289062 140.683594 13.679688 140.390625 13.148438 C 140.101562 12.617188 139.699219 12.207031 139.191406 11.914062 C 138.683594 11.601562 138.09375 11.449219 137.417969 11.449219 C 136.765625 11.449219 136.183594 11.601562 135.675781 11.914062 C 135.164062 12.207031 134.765625 12.617188 134.472656 13.148438 C 134.183594 13.679688 134.039062 14.289062 134.039062 14.984375 C 134.039062 15.679688 134.183594 16.300781 134.472656 16.847656 C 134.765625 17.378906 135.164062 17.800781 135.675781 18.109375 C 136.183594 18.402344 136.765625 18.550781 137.417969 18.550781 Z M 137.417969 18.550781 "/>
<path style=" stroke:none;fill-rule:nonzero;fill:rgb(0%,17.647059%,80.392157%);fill-opacity:1;" d="M 150.527344 21.921875 C 149.78125 21.921875 149.042969 21.820312 148.316406 21.621094 C 147.609375 21.417969 146.953125 21.144531 146.355469 20.796875 C 145.753906 20.433594 145.234375 19.992188 144.800781 19.480469 L 146.925781 17.316406 C 147.382812 17.828125 147.910156 18.210938 148.507812 18.46875 C 149.109375 18.722656 149.773438 18.851562 150.5 18.851562 C 151.082031 18.851562 151.515625 18.769531 151.808594 18.605469 C 152.117188 18.441406 152.269531 18.191406 152.269531 17.863281 C 152.269531 17.5 152.109375 17.214844 151.78125 17.015625 C 151.472656 16.8125 151.0625 16.648438 150.554688 16.519531 C 150.042969 16.375 149.507812 16.21875 148.945312 16.054688 C 148.398438 15.871094 147.871094 15.644531 147.363281 15.367188 C 146.855469 15.078125 146.4375 14.683594 146.109375 14.191406 C 145.800781 13.679688 145.644531 13.019531 145.644531 12.214844 C 145.644531 11.375 145.84375 10.644531 146.246094 10.023438 C 146.664062 9.398438 147.253906 8.914062 148.015625 8.570312 C 148.78125 8.222656 149.679688 8.046875 150.71875 8.046875 C 151.808594 8.046875 152.789062 8.238281 153.664062 8.625 C 154.554688 9.007812 155.289062 9.582031 155.871094 10.351562 L 153.71875 12.515625 C 153.316406 12.023438 152.863281 11.667969 152.351562 11.449219 C 151.863281 11.226562 151.328125 11.117188 150.746094 11.117188 C 150.21875 11.117188 149.808594 11.199219 149.519531 11.367188 C 149.246094 11.53125 149.109375 11.757812 149.109375 12.050781 C 149.109375 12.378906 149.261719 12.636719 149.574219 12.820312 C 149.898438 13 150.316406 13.164062 150.828125 13.3125 C 151.335938 13.441406 151.863281 13.59375 152.40625 13.777344 C 152.972656 13.941406 153.5 14.179688 153.988281 14.492188 C 154.5 14.800781 154.90625 15.214844 155.214844 15.726562 C 155.542969 16.238281 155.707031 16.894531 155.707031 17.699219 C 155.707031 18.996094 155.242188 20.03125 154.316406 20.796875 C 153.390625 21.546875 152.125 21.921875 150.527344 21.921875 Z M 150.527344 21.921875 "/>
</g>
</svg>
